<svg version="1.1" id="Layer_1" xmlns="http://www.w3.org/2000/svg" xmlns:xlink="http://www.w3.org/1999/xlink" x="0px" y="0px"
	 width="100%" viewBox="0 0 128 128" enable-background="new 0 0 128 128" xml:space="preserve">
<path fill="#4C4C4C" opacity="1.000000" stroke="none" 
	d="
M104.000000,129.000000 
	C69.752701,129.000000 35.505398,129.000000 1.000000,129.000000 
	C1.000000,105.313065 1.000000,81.625191 1.338514,57.544601 
	C2.672603,58.198830 3.941827,59.094131 4.619578,60.317196 
	C9.203740,68.589714 13.514577,77.017517 18.257765,85.195610 
	C19.583696,87.481758 22.065605,89.097443 24.275093,91.247360 
	C27.385778,92.636147 30.238607,93.798248 33.438568,95.008392 
	C39.100082,97.728539 44.414474,100.400635 50.801895,103.612251 
	C50.371803,100.225380 50.167767,98.618652 50.118881,96.698074 
	C51.241020,94.467850 51.983696,92.383209 53.251808,90.692711 
	C54.135490,89.514679 55.739773,88.877205 56.789780,88.249084 
	C55.047279,91.676674 53.537163,94.853439 52.022171,98.427597 
	C52.683506,100.785568 52.767834,103.708672 54.123749,104.528374 
	C58.390789,107.107986 63.135471,108.897522 68.493103,111.359558 
	C68.704880,108.489624 68.833633,106.744789 69.171280,104.719780 
	C71.234772,100.980988 73.089371,97.522377 74.942825,94.453186 
	C73.630806,98.898834 72.319923,102.955055 71.004326,107.416397 
	C70.466583,111.371208 72.160934,113.431549 75.359680,114.676689 
	C78.145714,115.761154 80.969673,116.850685 83.551292,118.331306 
	C86.642838,120.104378 88.121887,118.952774 89.250946,115.828018 
	C89.964958,115.072540 90.479065,114.518326 90.994598,114.376358 
	C91.493317,117.953537 88.397522,122.920830 95.415359,123.118149 
	C97.513954,123.899933 99.298393,124.536171 101.214165,125.448151 
	C102.230331,126.815926 103.115166,127.907967 104.000000,129.000000 
z"/>
<path fill="#4C4C4C" opacity="1.000000" stroke="none" 
	d="
M1.000000,33.000000 
	C1.000000,22.379292 1.000000,11.758582 1.000000,1.000000 
	C24.020729,1.000000 47.041706,1.000000 70.527496,1.442723 
	C70.728523,4.480035 70.082466,7.105682 70.290154,9.661967 
	C70.605125,13.538695 71.513435,17.367218 72.143066,21.509842 
	C72.099838,22.199280 72.083206,22.595095 71.868637,23.281712 
	C71.444466,24.717594 71.218239,25.862677 70.606064,27.006447 
	C68.676804,26.420862 66.565506,26.279270 65.699005,25.167500 
	C63.307892,22.099554 49.051136,17.071140 45.596317,18.556492 
	C45.003193,18.811497 44.353027,19.169188 43.981701,19.667568 
	C40.945896,23.742121 37.970013,27.861320 34.982338,32.391685 
	C36.318676,37.883686 37.648598,42.950951 38.917675,48.390648 
	C38.545227,50.501179 38.233624,52.239288 37.687893,54.199665 
	C36.228199,55.280125 35.002628,56.138317 33.609882,56.752846 
	C33.305969,55.930458 33.169231,55.351734 33.049957,54.430679 
	C34.246307,50.538452 32.515873,48.868813 29.295872,47.905735 
	C26.483191,47.064480 23.756960,45.934170 20.323660,44.688972 
	C22.851112,41.578312 24.833216,38.954216 27.012178,36.505280 
	C29.556978,33.645168 28.951113,31.821156 25.452267,30.663166 
	C23.079136,29.877750 20.609999,29.290813 18.363016,28.234049 
	C12.939681,25.683439 8.217697,25.600660 4.357944,31.009470 
	C3.666551,31.978348 2.140613,32.351688 1.000000,33.000000 
z"/>
<path fill="#4C4C4C" opacity="1.000000" stroke="none" 
	d="
M98.000000,0.999999 
	C108.272675,1.000000 118.545349,1.000000 129.000000,1.000000 
	C129.000000,15.353715 129.000000,29.708199 128.597794,44.519516 
	C127.377045,44.872738 126.539337,44.847755 125.742874,44.653584 
	C115.644569,42.191662 115.646080,42.185459 111.899063,52.394669 
	C110.839691,55.466721 109.932388,58.217983 109.017227,61.367180 
	C108.994560,62.820969 108.979767,63.876823 108.713318,65.129433 
	C107.642342,66.552269 106.823021,67.778358 105.824265,68.850800 
	C105.413544,68.482468 105.199661,68.251656 105.120941,67.711182 
	C105.487625,66.615463 105.736526,65.813278 106.127792,64.672058 
	C106.511208,62.886261 106.752251,61.439514 107.195541,59.708176 
	C108.284027,56.954842 109.170273,54.486103 110.243790,51.706070 
	C111.130074,49.172718 112.148125,46.987186 112.408264,44.714886 
	C112.563896,43.355492 111.972084,41.197216 110.966057,40.531208 
	C103.048637,35.289742 98.087532,37.650848 96.655121,46.977184 
	C95.905647,47.019035 95.476929,47.035789 95.068954,46.664764 
	C95.568771,44.550194 95.797691,42.700191 96.575630,41.120586 
	C98.604523,37.000931 96.929924,35.748413 93.129959,35.656574 
	C95.401764,30.772354 97.400322,26.200621 95.128380,20.925091 
	C97.411049,18.620398 99.108498,16.497646 95.959656,13.554438 
	C96.303947,10.088029 96.646461,7.046088 97.174225,3.739770 
	C97.572975,2.650262 97.786484,1.825130 98.000000,0.999999 
z"/>
<path fill="#555555" opacity="1.000000" stroke="none" 
	d="
M1.000000,33.458069 
	C2.140613,32.351688 3.666551,31.978348 4.357944,31.009470 
	C8.217697,25.600660 12.939681,25.683439 18.363016,28.234049 
	C20.609999,29.290813 23.079136,29.877750 25.452267,30.663166 
	C28.951113,31.821156 29.556978,33.645168 27.012178,36.505280 
	C24.833216,38.954216 22.851112,41.578312 20.323660,44.688972 
	C23.756960,45.934170 26.483191,47.064480 29.295872,47.905735 
	C32.515873,48.868813 34.246307,50.538452 32.746811,54.353645 
	C32.015205,54.546326 31.604204,54.473713 31.148197,54.081944 
	C29.917572,52.524223 28.863955,50.421288 27.520525,50.216125 
	C24.080772,49.690834 20.512102,50.009747 17.020086,49.648087 
	C17.424608,47.792713 17.804028,46.280323 18.277264,44.393978 
	C11.714371,48.049461 11.716721,48.043465 4.292393,45.132774 
	C3.212826,44.709534 2.098331,44.375381 1.000000,44.000000 
	C1.000000,40.638714 1.000000,37.277424 1.000000,33.458069 
z"/>
<path fill="#606060" opacity="1.000000" stroke="none" 
	d="
M96.988976,4.004148 
	C96.646461,7.046088 96.303947,10.088029 95.716919,13.558126 
	C95.472404,13.986282 94.986061,13.997436 94.609772,13.914602 
	C91.535759,13.152866 88.838951,12.470293 86.140144,11.795738 
	C77.369377,9.603520 75.966766,10.380733 73.007568,19.378880 
	C72.998100,20.117517 72.990211,20.539446 72.778503,21.023014 
	C72.574692,21.084652 72.169670,21.216219 72.169670,21.216219 
	C71.513435,17.367218 70.605125,13.538695 70.290154,9.661967 
	C70.082466,7.105682 70.728523,4.480035 70.996155,1.442723 
	C76.688042,1.000000 82.376083,1.000000 88.691193,1.312788 
	C91.875168,2.418433 94.432076,3.211291 96.988976,4.004148 
z"/>
<path fill="#626262" opacity="1.000000" stroke="none" 
	d="
M1.000000,44.463188 
	C2.098331,44.375381 3.212826,44.709534 4.292393,45.132774 
	C11.716721,48.043465 11.714371,48.049461 18.277264,44.393978 
	C17.804028,46.280323 17.424608,47.792713 16.961159,49.875706 
	C16.877127,50.446304 16.764814,50.902821 16.458879,51.017838 
	C12.722613,53.588627 8.946455,55.824894 9.911663,61.393768 
	C10.343830,62.863605 10.728596,63.980225 11.244953,65.395813 
	C12.939864,67.747803 14.503181,69.800819 15.924417,72.125412 
	C16.228065,73.937393 16.673796,75.477814 17.160910,77.289902 
	C17.478607,77.735748 17.754919,77.909920 18.014729,78.034325 
	C17.998224,77.984558 17.898643,78.017418 17.835133,78.356911 
	C18.845840,80.111549 19.920063,81.526703 21.012600,83.312744 
	C22.026354,86.129318 23.021795,88.575005 24.017235,91.020683 
	C22.065605,89.097443 19.583696,87.481758 18.257765,85.195610 
	C13.514577,77.017517 9.203740,68.589714 4.619578,60.317196 
	C3.941827,59.094131 2.672603,58.198830 1.338514,57.075943 
	C1.000000,52.975456 1.000000,48.950912 1.000000,44.463188 
z"/>
<path fill="#4C4C4C" opacity="1.000000" stroke="none" 
	d="
M129.000000,111.000000 
	C129.000000,116.929909 129.000000,122.859810 129.000000,129.000000 
	C122.647133,129.000000 116.292610,129.000000 109.539742,128.664459 
	C115.760933,122.552605 122.380470,116.776306 129.000000,111.000000 
z"/>
<path fill="#555555" opacity="1.000000" stroke="none" 
	d="
M129.000000,84.000000 
	C129.000000,92.020897 129.000000,100.041801 128.654800,108.456192 
	C125.934166,107.888641 123.558723,106.927605 121.070930,105.732300 
	C120.883400,105.342003 120.808235,105.185966 120.769173,104.701462 
	C120.791527,103.932617 120.777763,103.492241 121.101334,102.885994 
	C124.231781,99.007675 123.505814,96.406837 119.078445,94.617722 
	C119.425369,92.154617 119.693863,90.073799 120.030563,87.688171 
	C120.385391,86.602547 120.672020,85.821716 121.033539,84.724785 
	C121.412895,83.600685 121.717361,82.792686 122.387665,82.019409 
	C124.835670,82.702744 126.917831,83.351372 129.000000,84.000000 
z"/>
<path fill="#555555" opacity="1.000000" stroke="none" 
	d="
M112.051125,52.073875 
	C115.646080,42.185459 115.644569,42.191662 125.742874,44.653584 
	C126.539337,44.847755 127.377045,44.872738 128.597794,44.988174 
	C129.000000,48.361286 129.000000,51.722576 128.752563,55.664291 
	C128.015610,56.500015 127.526100,56.755306 126.739761,56.804287 
	C121.645668,55.089947 116.848396,53.581909 112.051125,52.073875 
z"/>
<path fill="#626262" opacity="1.000000" stroke="none" 
	d="
M121.183289,105.966560 
	C123.558723,106.927605 125.934166,107.888641 128.654800,108.924843 
	C129.000000,109.444443 129.000000,109.888893 129.000000,110.666672 
	C122.380470,116.776306 115.760933,122.552605 109.070694,128.664459 
	C107.611107,129.000000 106.222221,129.000000 104.416664,129.000000 
	C103.115166,127.907967 102.230331,126.815926 101.570114,125.420792 
	C102.505402,125.051071 103.216080,124.984459 104.296486,124.904404 
	C106.778717,123.246498 108.891220,121.602036 111.234161,119.720345 
	C112.353333,118.658134 113.242058,117.833153 114.477875,116.983925 
	C119.534454,114.793365 121.021362,110.763138 121.183289,105.966560 
z"/>
<path fill="#4C4C4C" opacity="1.000000" stroke="none" 
	d="
M127.036591,57.010593 
	C127.526100,56.755306 128.015610,56.500015 128.752563,56.122360 
	C129.000000,65.020897 129.000000,74.041786 129.000000,83.531342 
	C126.917831,83.351372 124.835670,82.702744 122.376678,81.777390 
	C121.999855,81.500656 121.978966,81.016251 122.063866,80.642715 
	C122.751038,77.499329 123.353317,74.729477 123.963943,71.632805 
	C123.982811,70.870209 123.993324,70.434433 124.202103,69.685898 
	C124.925400,66.573830 125.450432,63.774525 126.052628,60.641872 
	C126.432053,59.209213 126.734322,58.109905 127.036591,57.010593 
z"/>
<path fill="#555555" opacity="1.000000" stroke="none" 
	d="
M97.174225,3.739771 
	C94.432076,3.211291 91.875168,2.418433 89.159134,1.312788 
	C91.700012,1.000000 94.400032,1.000000 97.550018,0.999999 
	C97.786484,1.825130 97.572975,2.650262 97.174225,3.739771 
z"/>
<path fill="#595959" opacity="1.000000" stroke="none" 
	d="
M33.777058,56.996506 
	C35.002628,56.138317 36.228199,55.280125 37.840881,54.492691 
	C37.582298,61.135422 40.554535,66.014549 45.603165,70.138580 
	C45.952927,70.515106 46.041397,70.782906 46.033463,71.509460 
	C46.707359,75.321014 47.371258,78.709045 48.015736,81.997971 
	C53.309399,81.997971 57.741482,81.997971 62.202217,82.353767 
	C63.580505,85.097214 64.930138,87.484863 65.881180,89.866867 
	C62.662453,89.240234 59.842308,88.619247 57.022163,87.998268 
	C55.739773,88.877205 54.135490,89.514679 53.251808,90.692711 
	C51.983696,92.383209 51.241020,94.467850 49.804832,96.538589 
	C44.868355,94.781906 40.401070,92.870872 36.182098,90.711258 
	C40.316319,87.895554 40.263458,83.952682 40.434917,79.916443 
	C41.224640,78.286530 42.526043,76.066315 41.931290,75.279640 
	C40.972504,74.011452 38.763870,73.688179 36.842323,72.993149 
	C36.601456,73.020546 36.117638,73.052185 36.116814,72.689865 
	C36.513393,68.991798 37.605759,65.274910 32.146797,64.748917 
	C32.673126,61.906097 33.225094,59.451302 33.777058,56.996506 
z"/>
<path fill="#555555" opacity="1.000000" stroke="none" 
	d="
M90.993179,113.964119 
	C90.479065,114.518326 89.964958,115.072540 89.140808,115.493042 
	C82.890190,112.576645 76.949608,109.793961 71.009033,107.011276 
	C72.319923,102.955055 73.630806,98.898834 75.375732,94.435638 
	C77.246567,94.011765 78.683365,93.994865 80.357834,94.204819 
	C83.391350,95.949173 86.187202,97.466675 89.341721,99.044167 
	C93.665588,102.123245 94.051323,106.557114 90.993179,113.964119 
z"/>
<path fill="#565656" opacity="1.000000" stroke="none" 
	d="
M80.120163,93.977966 
	C78.683365,93.994865 77.246567,94.011765 75.376869,94.046219 
	C73.089371,97.522377 71.234772,100.980988 68.822052,104.637306 
	C62.851639,102.566742 57.439342,100.298477 52.027046,98.030212 
	C53.537163,94.853439 55.047279,91.676674 56.789780,88.249084 
	C59.842308,88.619247 62.662453,89.240234 66.262070,89.949295 
	C69.926224,90.122429 72.810890,90.207497 75.890518,90.465935 
	C76.434708,90.186745 76.783936,89.734184 77.172440,89.171555 
	C77.211716,89.061485 77.440086,89.111305 77.754852,89.355820 
	C78.711388,90.069725 79.353165,90.539124 79.992165,91.254349 
	C79.989395,91.500175 79.993217,91.991852 80.004974,92.323502 
	C80.051216,93.096092 80.085693,93.537033 80.120163,93.977966 
z"/>
<path fill="#4F4B4B" opacity="1.000000" stroke="none" 
	d="
M79.993217,91.991852 
	C79.993217,91.991852 79.989395,91.500175 80.332878,91.116455 
	C82.120819,90.486656 83.565277,90.240562 85.004021,89.997925 
	C84.998306,90.001381 84.997383,89.988930 85.258263,90.183487 
	C86.352203,90.585068 87.185257,90.792091 88.008743,91.000504 
	C87.999168,91.001900 87.989799,90.984955 88.206543,91.172806 
	C88.950691,91.571442 89.478088,91.782234 90.002594,91.996506 
	C89.999710,92.000000 90.002792,91.991096 90.262360,92.186340 
	C91.354004,92.587395 92.186081,92.793205 93.008636,93.000443 
	C92.999115,93.001877 92.989922,92.984947 93.171532,93.126198 
	C93.907509,93.176582 94.461868,93.085724 95.325554,92.867874 
	C97.425339,91.493568 99.215805,90.246262 101.004433,89.403885 
	C100.982903,91.156425 100.963211,92.504044 100.640625,94.019760 
	C98.800812,97.052032 97.263893,99.916199 95.559036,103.201416 
	C95.961479,106.436195 96.531853,109.249908 97.053261,112.417099 
	C99.895233,118.624771 105.055458,120.058670 111.003723,119.957565 
	C108.891220,121.602036 106.778717,123.246498 104.366165,124.639549 
	C100.820152,119.741539 97.423271,119.205177 95.101196,122.972595 
	C88.397522,122.920830 91.493317,117.953537 90.994598,114.376358 
	C94.051323,106.557114 93.665588,102.123245 89.418839,98.712936 
	C88.453232,96.748383 88.184097,94.435036 86.992508,93.766945 
	C84.965019,92.630180 82.357193,92.528481 79.993217,91.991852 
M94.143059,98.751915 
	C94.034760,98.901314 93.926460,99.050713 93.818169,99.200119 
	C93.976234,99.106049 94.134293,99.011971 94.143059,98.751915 
z"/>
<path fill="#626262" opacity="1.000000" stroke="none" 
	d="
M71.004318,107.416397 
	C76.949608,109.793961 82.890190,112.576645 88.940903,115.694305 
	C88.121887,118.952774 86.642838,120.104378 83.551292,118.331306 
	C80.969673,116.850685 78.145714,115.761154 75.359680,114.676689 
	C72.160934,113.431549 70.466583,111.371208 71.004318,107.416397 
z"/>
<path fill="#626262" opacity="1.000000" stroke="none" 
	d="
M52.022171,98.427597 
	C57.439342,100.298477 62.851639,102.566742 68.613159,104.917488 
	C68.833633,106.744789 68.704880,108.489624 68.493103,111.359558 
	C63.135471,108.897522 58.390789,107.107986 54.123749,104.528374 
	C52.767834,103.708672 52.683506,100.785568 52.022171,98.427597 
z"/>
<path fill="#4F4B4B" opacity="1.000000" stroke="none" 
	d="
M24.275093,91.247360 
	C23.021795,88.575005 22.026354,86.129318 21.372681,83.452011 
	C24.441938,84.267654 27.224510,85.471046 28.004492,81.111618 
	C28.003796,81.222488 28.225508,81.225800 28.625038,81.180313 
	C30.367271,81.160049 31.709972,81.185272 32.948200,81.461205 
	C28.658691,85.553108 32.447231,89.282326 33.012154,93.374619 
	C33.044647,94.114975 33.068043,94.537666 33.091438,94.960350 
	C30.238607,93.798248 27.385778,92.636147 24.275093,91.247360 
z"/>
<path fill="#626262" opacity="1.000000" stroke="none" 
	d="
M33.438568,95.008392 
	C33.068043,94.537666 33.044647,94.114975 33.270546,93.202377 
	C34.324482,92.128258 35.129131,91.544044 35.933781,90.959831 
	C40.401070,92.870872 44.868355,94.781906 49.649689,96.852432 
	C50.167767,98.618652 50.371803,100.225380 50.801895,103.612251 
	C44.414474,100.400635 39.100082,97.728539 33.438568,95.008392 
z"/>
<path fill="#332826" opacity="1.000000" stroke="none" 
	d="
M95.415359,123.118149 
	C97.423271,119.205177 100.820152,119.741539 103.996429,124.652992 
	C103.216080,124.984459 102.505402,125.051071 101.438782,125.145042 
	C99.298393,124.536171 97.513954,123.899933 95.415359,123.118149 
z"/>
<path fill="#555555" opacity="1.000000" stroke="none" 
	d="
M34.975914,31.966949 
	C37.970013,27.861320 40.945896,23.742121 43.981701,19.667568 
	C44.353027,19.169188 45.003193,18.811497 45.596317,18.556492 
	C49.051136,17.071140 63.307892,22.099554 65.699005,25.167500 
	C66.565506,26.279270 68.676804,26.420862 70.606232,27.392284 
	C70.978569,28.551373 70.964783,29.323313 70.713745,30.357813 
	C69.080940,33.704365 67.334381,36.685532 66.392044,39.902294 
	C65.512787,42.903713 65.239525,46.237896 68.946945,48.319447 
	C67.315598,49.077625 65.722900,49.521198 64.090805,49.567406 
	C63.918381,48.112904 63.785347,47.055775 63.898155,45.698822 
	C66.697060,39.638958 63.196049,36.659771 59.165398,33.794926 
	C60.815800,31.449497 62.224773,29.343916 63.539108,27.379759 
	C62.857540,26.651697 62.683437,26.313791 62.414993,26.201584 
	C57.882843,24.307253 56.382751,25.388063 52.768089,33.234299 
	C50.700466,34.343895 48.849949,35.176579 46.712486,35.799221 
	C42.608997,34.381771 38.792454,33.174358 34.975914,31.966949 
z"/>
<path fill="#494443" opacity="1.000000" stroke="none" 
	d="
M70.950989,30.095253 
	C70.964783,29.323313 70.978569,28.551373 70.992188,27.393597 
	C71.218239,25.862677 71.444466,24.717594 72.235733,23.369667 
	C79.172386,24.785362 85.544006,26.403902 91.921791,28.427343 
	C91.625481,31.510361 91.323021,34.188480 91.003540,37.085625 
	C90.986534,37.304657 90.974701,37.743881 90.587036,37.827599 
	C88.123451,38.240345 86.047516,38.569378 84.059624,38.530060 
	C85.535210,31.641582 83.988388,30.044573 75.502991,29.803675 
	C75.334419,31.850836 75.162918,33.933617 74.762192,35.965576 
	C74.532967,35.914753 74.101448,35.729557 73.918961,35.461517 
	C72.807983,33.494068 71.879486,31.794661 70.950989,30.095253 
z"/>
<path fill="#606060" opacity="1.000000" stroke="none" 
	d="
M34.982334,32.391685 
	C38.792454,33.174358 42.608997,34.381771 46.624283,36.132881 
	C45.182152,39.753288 43.541275,42.829990 41.607132,46.002163 
	C40.535423,46.737827 39.756969,47.378021 38.978519,48.018219 
	C37.648598,42.950951 36.318676,37.883686 34.982334,32.391685 
z"/>
<path fill="#231D1D" opacity="1.000000" stroke="none" 
	d="
M33.609882,56.752846 
	C33.225094,59.451302 32.673126,61.906097 32.128223,65.144287 
	C32.296032,70.382355 28.706345,69.861580 25.879650,70.218338 
	C24.793341,68.625946 23.846478,67.353233 23.089348,65.793533 
	C25.917124,61.804733 28.555162,58.102917 31.193203,54.401100 
	C31.604204,54.473713 32.015205,54.546326 32.729347,54.695972 
	C33.169231,55.351734 33.305969,55.930458 33.609882,56.752846 
z"/>
<path fill="#6A6A6A" opacity="1.000000" stroke="none" 
	d="
M38.917675,48.390648 
	C39.756969,47.378021 40.535423,46.737827 41.702705,46.081181 
	C42.091541,46.064732 42.283493,46.221786 42.208050,46.649624 
	C42.138412,49.422783 42.144218,51.768101 42.091690,54.470222 
	C43.052353,56.865875 44.071346,58.904724 44.923485,61.174034 
	C44.841820,62.270702 44.927006,63.136913 44.904457,64.296585 
	C44.933117,65.764473 45.069511,66.938904 45.208580,68.430611 
	C45.290257,69.163460 45.369267,69.579033 45.448277,69.994606 
	C40.554535,66.014549 37.582298,61.135422 38.075005,54.270424 
	C38.233624,52.239288 38.545227,50.501179 38.917675,48.390648 
z"/>
<path fill="#393434" opacity="1.000000" stroke="none" 
	d="
M91.915634,28.022442 
	C85.544006,26.403902 79.172386,24.785362 72.433670,23.078865 
	C72.083206,22.595095 72.099838,22.199280 72.143066,21.509842 
	C72.169670,21.216219 72.574692,21.084652 73.127274,21.167461 
	C80.122612,22.837597 86.565361,24.424923 92.933884,26.292728 
	C92.544968,27.056288 92.230301,27.539366 91.915634,28.022442 
z"/>
<path fill="#52504F" opacity="1.000000" stroke="none" 
	d="
M93.008118,26.012247 
	C86.565361,24.424923 80.122612,22.837597 73.331085,21.105824 
	C72.990211,20.539446 72.998100,20.117517 73.358803,19.268723 
	C78.914703,15.835381 84.328979,14.934051 89.930359,17.559341 
	C93.896133,19.418051 95.113792,17.756266 94.986061,13.997436 
	C94.986061,13.997436 95.472404,13.986282 95.715134,13.982594 
	C99.108498,16.497646 97.411049,18.620398 94.918205,21.167480 
	C93.955376,23.081964 93.481743,24.547106 93.008118,26.012247 
z"/>
<path fill="#555555" opacity="1.000000" stroke="none" 
	d="
M96.975883,46.952095 
	C98.087532,37.650848 103.048637,35.289742 110.966057,40.531208 
	C111.972084,41.197216 112.563896,43.355492 112.408264,44.714886 
	C112.148125,46.987186 111.130074,49.172718 109.971252,51.471878 
	C105.332932,50.016685 101.154404,48.484390 96.975883,46.952095 
z"/>
<path fill="#656565" opacity="1.000000" stroke="none" 
	d="
M124.003838,69.998665 
	C123.993324,70.434433 123.982811,70.870209 123.701942,71.844971 
	C121.140388,74.241478 120.704018,79.535072 116.089775,77.055504 
	C112.315445,75.027298 105.583885,76.357376 106.003700,69.004440 
	C106.823021,67.778358 107.642342,66.552269 109.081436,65.228119 
	C114.468750,66.752914 119.236290,68.375793 124.003838,69.998665 
z"/>
<path fill="#666666" opacity="1.000000" stroke="none" 
	d="
M126.739761,56.804287 
	C126.734322,58.109905 126.432053,59.209213 125.783264,60.846329 
	C123.329407,64.821609 120.547218,65.160973 117.007828,63.581104 
	C114.464951,62.446053 111.694191,61.821522 109.025093,60.969246 
	C109.932388,58.217983 110.839691,55.466721 111.899063,52.394669 
	C116.848396,53.581909 121.645668,55.089947 126.739761,56.804287 
z"/>
<path fill="#666666" opacity="1.000000" stroke="none" 
	d="
M96.655121,46.977188 
	C101.154404,48.484390 105.332932,50.016685 109.783989,51.783173 
	C109.170273,54.486103 108.284027,56.954842 106.829292,59.629906 
	C104.048645,59.128178 101.879509,58.199047 99.615303,57.758457 
	C95.013512,56.862999 93.535675,54.329056 94.986992,49.586845 
	C95.015831,48.490536 95.032379,47.758827 95.037582,47.022591 
	C95.026230,47.018070 95.048218,47.052547 95.048218,47.052544 
	C95.476929,47.035789 95.905647,47.019035 96.655121,46.977188 
z"/>
<path fill="#595959" opacity="1.000000" stroke="none" 
	d="
M94.974701,49.951439 
	C93.535675,54.329056 95.013512,56.862999 99.615303,57.758457 
	C101.879509,58.199047 104.048645,59.128178 106.627045,59.914501 
	C106.752251,61.439514 106.511208,62.886261 105.772308,64.581146 
	C99.531792,63.558784 93.789124,62.288284 88.070984,60.675831 
	C88.388039,59.237022 88.680557,58.140167 88.911789,56.713078 
	C88.548775,55.540028 88.247055,54.697205 87.929367,53.558186 
	C87.968758,52.872059 88.024124,52.482136 88.420555,52.001678 
	C89.816490,49.602726 90.871368,47.294304 92.179764,45.149151 
	C92.975136,45.897758 93.516983,46.483097 94.076042,47.377735 
	C94.387070,48.441837 94.680878,49.196640 94.974701,49.951439 
z"/>
<path fill="#555555" opacity="1.000000" stroke="none" 
	d="
M105.824265,68.850800 
	C105.583885,76.357376 112.315445,75.027298 116.089775,77.055504 
	C120.704018,79.535072 121.140388,74.241478 123.693588,72.171799 
	C123.353317,74.729477 122.751038,77.499329 121.681557,80.603577 
	C118.107292,79.946022 114.962257,79.056984 111.905312,77.929199 
	C109.504303,77.043404 107.741585,77.155388 106.662766,79.922958 
	C100.892143,79.500671 102.165672,84.176376 100.694809,86.879639 
	C99.933029,85.867752 99.459404,84.983589 99.219315,83.820351 
	C99.984108,81.696587 100.515366,79.851898 101.273613,77.737854 
	C102.004333,75.652412 102.508072,73.836334 103.152954,71.702194 
	C103.556366,70.263039 103.818626,69.141945 104.311493,68.019142 
	C104.542107,68.017441 105.003166,68.004715 105.003166,68.004715 
	C105.199661,68.251656 105.413544,68.482468 105.824265,68.850800 
z"/>
<path fill="#656565" opacity="1.000000" stroke="none" 
	d="
M105.120941,67.711182 
	C105.003166,68.004715 104.542107,68.017441 103.917191,67.979492 
	C98.526100,66.961609 93.759911,65.981659 88.676987,65.002319 
	C87.938026,65.006355 87.515816,65.009781 87.042641,64.778870 
	C86.991676,64.544540 86.992630,64.064919 87.018723,63.739250 
	C87.378708,62.614983 87.712585,61.816380 88.046463,61.017784 
	C93.789124,62.288284 99.531792,63.558784 105.629944,64.920197 
	C105.736526,65.813278 105.487625,66.615463 105.120941,67.711182 
z"/>
<path fill="#555555" opacity="1.000000" stroke="none" 
	d="
M109.017227,61.367180 
	C111.694191,61.821522 114.464951,62.446053 117.007828,63.581104 
	C120.547218,65.160973 123.329407,64.821609 125.706108,61.179680 
	C125.450432,63.774525 124.925400,66.573830 124.202103,69.685898 
	C119.236290,68.375793 114.468750,66.752914 109.333084,65.031357 
	C108.979767,63.876823 108.994560,62.820969 109.017227,61.367180 
z"/>
<path fill="#565656" opacity="1.000000" stroke="none" 
	d="
M94.058830,47.068436 
	C93.516983,46.483097 92.975136,45.897758 92.190826,44.727318 
	C91.623802,42.009434 91.299255,39.876659 90.974701,37.743881 
	C90.974701,37.743881 90.986534,37.304657 91.265549,37.026459 
	C92.016838,36.492336 92.489120,36.236416 92.961403,35.980495 
	C96.929924,35.748413 98.604523,37.000931 96.575630,41.120586 
	C95.797691,42.700191 95.568771,44.550194 95.068954,46.664764 
	C95.048218,47.052547 95.026230,47.018070 94.789734,47.028400 
	C94.553238,47.038731 94.058830,47.068432 94.058830,47.068436 
z"/>
<path fill="#292321" opacity="1.000000" stroke="none" 
	d="
M93.129959,35.656574 
	C92.489120,36.236416 92.016838,36.492336 91.282555,36.807426 
	C91.323021,34.188480 91.625481,31.510361 91.921791,28.427341 
	C92.230301,27.539366 92.544968,27.056288 92.933884,26.292728 
	C93.481743,24.547106 93.955376,23.081964 94.639175,21.374432 
	C97.400322,26.200621 95.401764,30.772354 93.129959,35.656574 
z"/>
<path fill="#363232" opacity="1.000000" stroke="none" 
	d="
M31.148195,54.081944 
	C28.555162,58.102917 25.917124,61.804733 22.785477,65.750290 
	C21.551657,65.677864 20.811440,65.361694 20.337200,64.911774 
	C20.627289,63.576595 20.971382,62.269718 20.616579,61.193180 
	C19.471056,57.717445 18.068380,54.326466 16.764814,50.902821 
	C16.764814,50.902821 16.877127,50.446304 16.936054,50.218685 
	C20.512102,50.009747 24.080772,49.690834 27.520525,50.216125 
	C28.863955,50.421288 29.917572,52.524223 31.148195,54.081944 
z"/>
<path fill="#666666" opacity="1.000000" stroke="none" 
	d="
M94.609772,13.914602 
	C95.113792,17.756266 93.896133,19.418051 89.930359,17.559341 
	C84.328979,14.934051 78.914703,15.835381 73.360382,18.952011 
	C75.966766,10.380733 77.369377,9.603520 86.140144,11.795738 
	C88.838951,12.470293 91.535759,13.152866 94.609772,13.914602 
z"/>
<path fill="#52504F" opacity="1.000000" stroke="none" 
	d="
M16.458879,51.017838 
	C18.068380,54.326466 19.471056,57.717445 20.616579,61.193180 
	C20.971382,62.269718 20.627289,63.576595 20.056042,64.766968 
	C16.294024,63.517464 13.079144,62.279003 9.864264,61.040543 
	C8.946455,55.824894 12.722613,53.588627 16.458879,51.017838 
z"/>
<path fill="#B2A5A2" opacity="1.000000" stroke="none" 
	d="
M17.119526,77.018227 
	C16.673796,75.477814 16.228065,73.937393 16.275585,72.204605 
	C18.163589,72.288841 19.558342,72.565453 21.317163,72.879784 
	C22.653688,72.839912 23.626144,72.762329 24.873676,72.961395 
	C26.174337,75.900642 27.199923,78.563217 28.225508,81.225800 
	C28.225508,81.225800 28.003796,81.222488 27.629086,81.054672 
	C24.135798,79.930374 21.017220,78.973900 17.898643,78.017418 
	C17.898643,78.017418 17.998224,77.984558 17.858574,77.860146 
	C17.515619,77.499489 17.315819,77.260323 17.119526,77.018227 
z"/>
<path fill="#4A4646" opacity="1.000000" stroke="none" 
	d="
M24.598602,72.684738 
	C23.626144,72.762329 22.653688,72.839912 21.242134,72.540207 
	C19.532154,67.121178 15.676458,65.623985 11.113361,65.096840 
	C10.728596,63.980225 10.343830,62.863605 9.911664,61.393768 
	C13.079144,62.279003 16.294024,63.517464 19.790064,64.900726 
	C20.811440,65.361694 21.551657,65.677864 22.595743,66.037277 
	C23.846478,67.353233 24.793341,68.625946 25.741396,70.438118 
	C25.361261,71.546623 24.979931,72.115685 24.598602,72.684738 
z"/>
<path fill="#332826" opacity="1.000000" stroke="none" 
	d="
M11.244954,65.395813 
	C15.676458,65.623985 19.532154,67.121178 20.878067,72.502487 
	C19.558342,72.565453 18.163589,72.288841 16.417667,71.933037 
	C14.503181,69.800819 12.939864,67.747803 11.244954,65.395813 
z"/>
<path fill="#F4E2DE" opacity="1.000000" stroke="none" 
	d="
M17.835133,78.356911 
	C21.017220,78.973900 24.135798,79.930374 27.629780,80.943802 
	C27.224510,85.471046 24.441938,84.267654 21.354366,83.081116 
	C19.920063,81.526703 18.845840,80.111549 17.835133,78.356911 
z"/>
<path fill="#F4E2DE" opacity="1.000000" stroke="none" 
	d="
M17.160908,77.289902 
	C17.315819,77.260323 17.515619,77.499489 17.875078,77.909912 
	C17.754919,77.909920 17.478607,77.735748 17.160908,77.289902 
z"/>
<path fill="#B3A7A4" opacity="1.000000" stroke="none" 
	d="
M97.102226,112.063629 
	C96.531853,109.249908 95.961479,106.436195 95.771606,103.371758 
	C97.043747,102.855217 98.544014,102.809082 98.731667,102.289169 
	C100.381050,97.719543 103.212128,98.547806 106.678917,99.990028 
	C111.268257,101.899239 116.039818,103.370461 120.733063,105.029922 
	C120.808235,105.185966 120.883400,105.342003 121.070930,105.732300 
	C121.021362,110.763138 119.534454,114.793365 114.058060,116.924438 
	C110.279320,116.248543 107.218895,115.774689 104.270714,114.915619 
	C101.812889,114.199448 99.486710,113.031494 97.102226,112.063629 
z"/>
<path fill="#AB9F9C" opacity="1.000000" stroke="none" 
	d="
M120.769173,104.701462 
	C116.039818,103.370461 111.268257,101.899239 106.678917,99.990028 
	C103.212128,98.547806 100.381050,97.719543 98.731667,102.289169 
	C98.544014,102.809082 97.043747,102.855217 95.939545,102.950699 
	C97.263893,99.916199 98.800812,97.052032 101.044922,94.014084 
	C108.130188,91.597672 113.234070,94.046486 118.006790,98.501785 
	C119.016991,100.207741 119.890495,101.629799 120.764000,103.051857 
	C120.777763,103.492241 120.791527,103.932617 120.769173,104.701462 
z"/>
<path fill="#6A6A6A" opacity="1.000000" stroke="none" 
	d="
M120.958649,85.040878 
	C120.672020,85.821716 120.385391,86.602547 119.760033,87.894745 
	C117.057983,92.144791 113.910255,92.424797 110.228691,90.533989 
	C108.503494,89.647926 106.734352,88.847412 104.998138,87.631989 
	C106.007545,85.169983 107.003922,83.084114 108.366562,81.078613 
	C112.808105,82.452950 116.883377,83.746918 120.958649,85.040878 
z"/>
<path fill="#626262" opacity="1.000000" stroke="none" 
	d="
M104.985115,88.008133 
	C106.734352,88.847412 108.503494,89.647926 110.228691,90.533989 
	C113.910255,92.424797 117.057983,92.144791 119.691826,88.199547 
	C119.693863,90.073799 119.425369,92.154617 119.004227,94.950745 
	C118.524406,96.516670 118.197250,97.367279 117.870094,98.217896 
	C113.234070,94.046486 108.130188,91.597672 101.347824,93.845978 
	C100.963211,92.504044 100.982903,91.156425 101.170120,89.228088 
	C101.564392,88.417603 101.806297,88.205086 102.317673,88.013077 
	C102.741486,88.020050 102.910995,88.023773 103.166199,88.086792 
	C103.251884,88.146095 103.544548,88.192184 103.544548,88.192184 
	C103.544548,88.192184 103.818787,88.068954 104.110352,88.053375 
	C104.596313,88.027901 104.790710,88.018013 104.985115,88.008133 
z"/>
<path fill="#5D5D5D" opacity="1.000000" stroke="none" 
	d="
M121.033539,84.724777 
	C116.883377,83.746918 112.808105,82.452950 108.211044,80.894699 
	C107.470642,80.393745 107.235825,80.174423 106.984795,79.972450 
	C107.741585,77.155388 109.504303,77.043404 111.905312,77.929199 
	C114.962257,79.056984 118.107292,79.946022 121.596657,80.977112 
	C121.978966,81.016251 121.999855,81.500656 122.010834,81.742676 
	C121.717361,82.792686 121.412895,83.600685 121.033539,84.724777 
z"/>
<path fill="#5D5D5D" opacity="1.000000" stroke="none" 
	d="
M118.006790,98.501785 
	C118.197250,97.367279 118.524406,96.516670 118.925781,95.333023 
	C123.505814,96.406837 124.231781,99.007675 121.101334,102.885994 
	C119.890495,101.629799 119.016991,100.207741 118.006790,98.501785 
z"/>
<path fill="#F4E2DE" opacity="1.000000" stroke="none" 
	d="
M97.053261,112.417099 
	C99.486710,113.031494 101.812889,114.199448 104.270714,114.915619 
	C107.218895,115.774689 110.279320,116.248543 113.710968,116.948685 
	C113.242058,117.833153 112.353333,118.658134 111.234161,119.720337 
	C105.055458,120.058670 99.895233,118.624771 97.053261,112.417099 
z"/>
<path fill="#B0A4A2" opacity="1.000000" stroke="none" 
	d="
M86.992630,64.064919 
	C86.992630,64.064919 86.991676,64.544540 86.985565,65.179688 
	C86.442017,68.185982 85.904587,70.557129 85.084213,73.095596 
	C80.658714,73.981964 80.380203,76.732658 81.123940,80.438881 
	C80.362694,83.209923 79.698708,85.614052 78.793961,88.068222 
	C78.553192,88.118271 78.062157,88.090454 77.705673,87.896378 
	C71.781067,87.156517 66.079773,86.965042 62.173561,81.997971 
	C57.741482,81.997971 53.309399,81.997971 48.015736,81.997971 
	C47.371258,78.709045 46.707359,75.321014 46.331558,71.699051 
	C49.144329,72.429214 51.669006,73.393303 54.570366,74.398804 
	C56.365993,74.024467 57.784935,73.608711 59.484917,73.007385 
	C61.154285,71.674767 62.542614,70.527725 63.892632,69.733154 
	C64.049713,70.994499 64.245117,71.903366 64.452187,72.866508 
	C70.794319,71.981201 68.167130,66.757011 69.596916,63.316170 
	C69.835854,62.753098 69.929718,62.412556 70.316643,62.062782 
	C70.994476,62.122066 71.379257,62.190586 71.851875,62.606583 
	C74.785797,64.921814 77.429474,68.401031 81.345825,64.112717 
	C81.745056,63.987251 81.902588,63.930344 82.465500,63.951027 
	C84.244804,64.040726 85.618721,64.052826 86.992630,64.064919 
z"/>
<path fill="#A49895" opacity="1.000000" stroke="none" 
	d="
M24.873676,72.961395 
	C24.979931,72.115685 25.361261,71.546623 25.880844,70.757782 
	C28.706345,69.861580 32.296032,70.382355 32.153854,65.532318 
	C37.605759,65.274910 36.513393,68.991798 35.930557,72.989868 
	C33.904724,75.835739 37.838249,80.076088 33.052673,81.210495 
	C31.709972,81.185272 30.367271,81.160049 28.625038,81.180313 
	C27.199923,78.563217 26.174337,75.900642 24.873676,72.961395 
z"/>
<path fill="#393434" opacity="1.000000" stroke="none" 
	d="
M32.948200,81.461205 
	C37.838249,80.076088 33.904724,75.835739 35.931377,73.352188 
	C36.117638,73.052185 36.601456,73.020546 36.894905,73.340530 
	C38.157402,75.763542 39.126442,77.866570 40.095482,79.969597 
	C40.263458,83.952682 40.316319,87.895554 36.182098,90.711258 
	C35.129131,91.544044 34.324482,92.128258 33.261444,92.884705 
	C32.447231,89.282326 28.658691,85.553108 32.948200,81.461205 
z"/>
<path fill="#E8D6D2" opacity="1.000000" stroke="none" 
	d="
M62.202217,82.353767 
	C66.079773,86.965042 71.781067,87.156517 77.633766,88.084160 
	C77.748016,88.673035 77.588600,88.888123 77.440086,89.111305 
	C77.440086,89.111305 77.211716,89.061485 76.971878,89.265381 
	C76.386543,89.743713 76.041054,90.018143 75.695564,90.292564 
	C72.810890,90.207497 69.926224,90.122429 66.660660,89.954941 
	C64.930138,87.484863 63.580505,85.097214 62.202217,82.353767 
z"/>
<path fill="#332826" opacity="1.000000" stroke="none" 
	d="
M54.193680,74.357391 
	C51.669006,73.393303 49.144329,72.429214 46.321560,71.275528 
	C46.041397,70.782906 45.952927,70.515106 45.603165,70.138580 
	C45.369267,69.579033 45.290257,69.163460 45.589371,68.427994 
	C49.948643,68.560143 54.007076,68.910446 54.193680,74.357391 
z"/>
<path fill="#626262" opacity="1.000000" stroke="none" 
	d="
M40.434917,79.916443 
	C39.126442,77.866570 38.157402,75.763542 37.135777,73.313133 
	C38.763870,73.688179 40.972504,74.011452 41.931290,75.279640 
	C42.526043,76.066315 41.224640,78.286530 40.434917,79.916443 
z"/>
<path fill="#433D3D" opacity="1.000000" stroke="none" 
	d="
M80.004974,92.323502 
	C82.357193,92.528481 84.965019,92.630180 86.992508,93.766945 
	C88.184097,94.435036 88.453232,96.748383 89.060165,98.652946 
	C86.187202,97.466675 83.391350,95.949173 80.357834,94.204819 
	C80.085693,93.537033 80.051216,93.096092 80.004974,92.323502 
z"/>
<path fill="#433D3D" opacity="1.000000" stroke="none" 
	d="
M77.754852,89.355820 
	C77.588600,88.888123 77.748016,88.673035 77.990250,88.278244 
	C78.062157,88.090454 78.553192,88.118271 79.162704,88.075943 
	C81.518051,88.687233 83.263893,89.340851 85.009735,89.994469 
	C83.565277,90.240562 82.120819,90.486656 80.335648,90.870628 
	C79.353165,90.539124 78.711388,90.069725 77.754852,89.355820 
z"/>
<path fill="#52504F" opacity="1.000000" stroke="none" 
	d="
M75.890518,90.465935 
	C76.041054,90.018143 76.386543,89.743713 76.932602,89.375458 
	C76.783936,89.734184 76.434708,90.186745 75.890518,90.465935 
z"/>
<path fill="#52504F" opacity="1.000000" stroke="none" 
	d="
M85.004021,89.997925 
	C83.263893,89.340851 81.518051,88.687233 79.403465,88.025894 
	C79.698708,85.614052 80.362694,83.209923 81.426865,80.351906 
	C82.822388,79.556419 83.817726,79.214836 85.092880,79.118256 
	C89.606514,80.905434 93.840332,82.447609 98.302582,84.012817 
	C98.531021,84.035858 98.985786,84.099434 98.985786,84.099434 
	C99.459404,84.983589 99.933029,85.867752 100.886040,87.033997 
	C101.610855,87.534477 101.843498,87.765724 102.063362,88.009827 
	C101.806297,88.205086 101.564392,88.417603 101.171959,88.823166 
	C99.215805,90.246262 97.425339,91.493568 94.987717,92.862915 
	C93.890350,92.984955 93.440132,92.984947 92.989922,92.984947 
	C92.989922,92.984947 92.999115,93.001877 92.744797,92.811142 
	C91.661247,92.410637 90.832024,92.200867 90.002792,91.991096 
	C90.002792,91.991096 89.999710,92.000000 89.787704,91.807007 
	C89.047073,91.404320 88.518433,91.194633 87.989799,90.984955 
	C87.989799,90.984955 87.999168,91.001900 87.744446,90.811005 
	C86.658943,90.409714 85.828163,90.199318 84.997383,89.988922 
	C84.997383,89.988930 84.998306,90.001381 85.004021,89.997925 
z"/>
<path fill="#555555" opacity="1.000000" stroke="none" 
	d="
M94.217712,98.834900 
	C94.134293,99.011971 93.976234,99.106049 93.818169,99.200119 
	C93.926460,99.050713 94.034760,98.901314 94.217712,98.834900 
z"/>
<path fill="#433D3D" opacity="1.000000" stroke="none" 
	d="
M90.262360,92.186340 
	C90.832024,92.200867 91.661247,92.410637 92.754318,92.809708 
	C92.186081,92.793205 91.354004,92.587395 90.262360,92.186340 
z"/>
<path fill="#433D3D" opacity="1.000000" stroke="none" 
	d="
M85.258263,90.183487 
	C85.828163,90.199318 86.658943,90.409714 87.754021,90.809616 
	C87.185257,90.792091 86.352203,90.585068 85.258263,90.183487 
z"/>
<path fill="#433D3D" opacity="1.000000" stroke="none" 
	d="
M93.171532,93.126198 
	C93.440132,92.984947 93.890350,92.984955 94.678398,92.989914 
	C94.461868,93.085724 93.907509,93.176582 93.171532,93.126198 
z"/>
<path fill="#433D3D" opacity="1.000000" stroke="none" 
	d="
M88.206543,91.172806 
	C88.518433,91.194633 89.047073,91.404320 89.790596,91.803513 
	C89.478088,91.782234 88.950691,91.571442 88.206543,91.172806 
z"/>
<path fill="#6A6A6A" opacity="1.000000" stroke="none" 
	d="
M41.995968,45.985714 
	C43.541275,42.829990 45.182152,39.753288 46.911232,36.342926 
	C48.849949,35.176579 50.700466,34.343895 53.116791,33.388496 
	C55.429726,33.522114 57.176846,33.778442 58.923969,34.034771 
	C63.196049,36.659771 66.697060,39.638958 63.666878,45.487762 
	C61.179829,44.267696 59.169903,42.958870 56.877068,41.463726 
	C50.580616,39.326958 46.197369,42.095116 42.283493,46.221786 
	C42.283493,46.221786 42.091541,46.064732 41.995968,45.985714 
z"/>
<path fill="#A99C99" opacity="1.000000" stroke="none" 
	d="
M57.159977,41.650047 
	C59.169903,42.958870 61.179829,44.267696 63.421036,45.787582 
	C63.785347,47.055775 63.918381,48.112904 63.951523,49.871124 
	C63.890774,52.238403 63.929924,53.904602 63.717953,55.781754 
	C63.268551,56.376102 63.070271,56.759495 62.718849,57.285000 
	C62.383312,57.640591 62.173260,57.822044 61.672546,57.738407 
	C57.752285,55.860935 56.501247,53.033131 56.964935,49.117390 
	C57.256512,46.655106 57.109970,44.140938 57.159977,41.650047 
z"/>
<path fill="#686867" opacity="1.000000" stroke="none" 
	d="
M61.935543,57.971474 
	C62.173260,57.822044 62.383312,57.640591 62.926018,57.039886 
	C63.513916,56.292038 63.741497,55.931419 63.969078,55.570797 
	C63.929924,53.904602 63.890774,52.238403 63.990913,50.268490 
	C65.722900,49.521198 67.315598,49.077625 69.239914,48.320671 
	C69.961830,48.007374 70.352150,48.007450 70.900742,48.287590 
	C71.448814,49.328041 71.838615,50.088425 72.013580,51.068832 
	C71.527718,51.833866 71.256691,52.378880 70.893013,53.075089 
	C70.945801,53.502514 71.091248,53.778740 71.326317,54.169472 
	C71.564758,54.421867 71.740433,54.496616 71.786728,54.860008 
	C71.570503,55.460632 71.510521,55.709480 71.198189,56.062523 
	C70.608131,56.790207 70.270409,57.413696 69.802200,58.294075 
	C69.789001,59.724648 69.906296,60.898331 70.023582,62.072018 
	C69.929718,62.412556 69.835854,62.753098 69.384811,62.967812 
	C67.322281,61.575691 65.616913,60.309399 63.630280,59.076195 
	C62.970520,59.114338 62.592037,59.119400 62.144199,58.836174 
	C62.028412,58.355755 61.981979,58.163616 61.935543,57.971474 
z"/>
<path fill="#6A6A6A" opacity="1.000000" stroke="none" 
	d="
M70.742462,48.007526 
	C70.352150,48.007450 69.961830,48.007374 69.278549,48.006073 
	C65.239525,46.237896 65.512787,42.903713 66.392044,39.902294 
	C67.334381,36.685532 69.080940,33.704365 70.713753,30.357815 
	C71.879486,31.794661 72.807983,33.494068 73.579521,35.612919 
	C72.623108,38.031761 71.823662,40.031155 70.927299,42.449459 
	C70.801079,44.581421 70.771767,46.294472 70.742462,48.007526 
z"/>
<path fill="#5D5D5D" opacity="1.000000" stroke="none" 
	d="
M59.165398,33.794926 
	C57.176846,33.778442 55.429726,33.522114 53.333900,33.111584 
	C56.382751,25.388063 57.882843,24.307253 62.414993,26.201584 
	C62.683437,26.313791 62.857540,26.651697 63.539108,27.379759 
	C62.224773,29.343916 60.815800,31.449497 59.165398,33.794926 
z"/>
<path fill="#B2A5A2" opacity="1.000000" stroke="none" 
	d="
M71.024208,42.030552 
	C71.823662,40.031155 72.623108,38.031761 73.762009,35.880959 
	C74.101448,35.729557 74.532967,35.914753 74.982895,36.248177 
	C78.279076,37.353870 81.125328,38.126141 83.971588,38.898407 
	C86.047516,38.569378 88.123451,38.240345 90.587036,37.827599 
	C91.299255,39.876659 91.623802,42.009434 91.937302,44.564049 
	C90.871368,47.294304 89.816490,49.602726 88.359596,51.626053 
	C86.792305,50.348808 85.559593,48.437908 84.473007,48.517677 
	C78.619728,48.947376 74.179115,46.951340 71.024208,42.030552 
z"/>
<path fill="#332826" opacity="1.000000" stroke="none" 
	d="
M84.059624,38.530060 
	C81.125328,38.126141 78.279076,37.353870 75.212112,36.298996 
	C75.162918,33.933617 75.334419,31.850836 75.502991,29.803675 
	C83.988388,30.044573 85.535210,31.641582 84.059624,38.530060 
z"/>
<path fill="#B3A7A4" opacity="1.000000" stroke="none" 
	d="
M61.672546,57.738407 
	C61.981979,58.163616 62.028412,58.355755 62.019089,59.035820 
	C61.761276,59.768383 61.605721,60.039677 61.425613,60.351021 
	C61.354561,60.364414 61.353832,60.509018 61.074585,60.663551 
	C59.857372,61.312546 58.919407,61.807014 57.976456,62.177429 
	C57.971466,62.053371 58.007103,61.807636 57.993324,61.446941 
	C58.015053,58.258945 57.227787,56.530998 53.586014,58.046577 
	C49.512070,56.705147 45.831051,55.409283 42.150024,54.113422 
	C42.144218,51.768101 42.138412,49.422783 42.208050,46.649624 
	C46.197369,42.095116 50.580616,39.326958 56.877068,41.463726 
	C57.109970,44.140938 57.256512,46.655106 56.964935,49.117390 
	C56.501247,53.033131 57.752285,55.860935 61.672546,57.738407 
z"/>
<path fill="#F4E2DE" opacity="1.000000" stroke="none" 
	d="
M42.091694,54.470222 
	C45.831051,55.409283 49.512070,56.705147 53.586864,58.451752 
	C53.985729,60.258465 53.990822,61.614433 53.594704,63.076138 
	C50.492443,62.435772 47.791393,61.689674 45.090340,60.943577 
	C44.071346,58.904724 43.052353,56.865875 42.091694,54.470222 
z"/>
<path fill="#4A4646" opacity="1.000000" stroke="none" 
	d="
M54.570366,74.398804 
	C54.007076,68.910446 49.948643,68.560143 45.586700,68.110718 
	C45.069511,66.938904 44.933117,65.764473 45.261730,64.369476 
	C49.200119,65.455116 52.673496,66.761330 56.248268,68.113617 
	C56.577438,68.209808 56.787037,68.159592 57.180294,67.979637 
	C57.382130,67.950241 57.789276,67.924934 57.847702,68.322250 
	C58.338707,70.210701 58.771294,71.701828 59.203880,73.192955 
	C57.784935,73.608711 56.365993,74.024467 54.570366,74.398804 
z"/>
<path fill="#565656" opacity="1.000000" stroke="none" 
	d="
M56.146873,68.067543 
	C52.673496,66.761330 49.200119,65.455116 45.369465,64.076012 
	C44.927006,63.136913 44.841820,62.270702 44.923485,61.174034 
	C47.791393,61.689674 50.492443,62.435772 53.954411,63.129128 
	C55.812584,62.653469 56.909843,62.230556 58.007103,61.807640 
	C58.007103,61.807636 57.971466,62.053371 57.976135,62.573456 
	C58.035767,64.414040 58.090729,65.734543 58.070641,67.278275 
	C57.995583,67.501503 57.789276,67.924934 57.789276,67.924934 
	C57.789276,67.924934 57.382130,67.950241 56.972775,67.997955 
	C56.563419,68.045670 56.146873,68.067543 56.146873,68.067543 
z"/>
<path fill="#4C4C4C" opacity="1.000000" stroke="none" 
	d="
M94.076042,47.377731 
	C94.058830,47.068432 94.553238,47.038731 94.801086,47.032921 
	C95.032379,47.758827 95.015831,48.490536 94.986984,49.586845 
	C94.680878,49.196640 94.387070,48.441837 94.076042,47.377731 
z"/>
<path fill="#E8D6D2" opacity="1.000000" stroke="none" 
	d="
M70.927299,42.449459 
	C74.179115,46.951340 78.619728,48.947376 84.473007,48.517677 
	C85.559593,48.437908 86.792305,50.348808 88.018539,51.716587 
	C88.024124,52.482136 87.968758,52.872059 87.527252,53.564804 
	C81.732971,55.021290 76.598152,54.824760 72.228409,50.848812 
	C71.838615,50.088425 71.448814,49.328041 70.900742,48.287590 
	C70.771767,46.294472 70.801079,44.581421 70.927299,42.449459 
z"/>
<path fill="#52504F" opacity="1.000000" stroke="none" 
	d="
M72.013580,51.068832 
	C76.598152,54.824760 81.732971,55.021290 87.543228,53.861008 
	C88.247055,54.697205 88.548775,55.540028 88.568832,56.743721 
	C83.565598,60.129684 79.447433,56.062584 74.996056,55.989803 
	C75.001274,56.006252 75.033257,55.996258 74.754929,55.793312 
	C73.632050,55.229656 72.787506,54.868942 71.942963,54.508228 
	C71.740433,54.496616 71.564758,54.421867 71.250168,53.889359 
	C71.051491,53.304459 71.018578,53.114174 70.985672,52.923893 
	C71.256691,52.378880 71.527718,51.833866 72.013580,51.068832 
z"/>
<path fill="#393434" opacity="1.000000" stroke="none" 
	d="
M74.990837,55.973354 
	C79.447433,56.062584 83.565598,60.129684 88.630119,57.073952 
	C88.680557,58.140167 88.388039,59.237022 88.070984,60.675827 
	C87.712585,61.816380 87.378708,62.614983 87.018723,63.739250 
	C85.618721,64.052826 84.244804,64.040726 82.709785,63.755360 
	C85.234726,62.030659 85.062012,60.827312 82.325836,59.606422 
	C79.836159,58.495529 77.432442,57.191982 74.990837,55.973354 
z"/>
<path fill="#5D5D5D" opacity="1.000000" stroke="none" 
	d="
M85.367157,72.928284 
	C85.904587,70.557129 86.442017,68.185982 87.036530,65.414017 
	C87.515816,65.009781 87.938026,65.006355 88.733566,65.356674 
	C93.741867,67.813705 98.376839,69.916977 103.011803,72.020256 
	C102.508072,73.836334 102.004333,75.652412 100.932495,77.593018 
	C95.365311,76.121124 90.366234,74.524704 85.367157,72.928284 
z"/>
<path fill="#686867" opacity="1.000000" stroke="none" 
	d="
M85.084206,73.095596 
	C90.366234,74.524704 95.365311,76.121124 100.705505,77.862381 
	C100.515366,79.851898 99.984108,81.696587 99.219315,83.820351 
	C98.985786,84.099434 98.531021,84.035858 98.158752,83.695206 
	C94.121429,78.196709 90.881287,77.077492 84.813065,78.873245 
	C83.817726,79.214836 82.822388,79.556419 81.524124,79.984985 
	C80.380203,76.732658 80.658714,73.981964 85.084206,73.095596 
z"/>
<path fill="#6A6A6A" opacity="1.000000" stroke="none" 
	d="
M103.152954,71.702194 
	C98.376839,69.916977 93.741867,67.813705 89.050316,65.356071 
	C93.759911,65.981659 98.526100,66.961609 103.686584,67.981201 
	C103.818626,69.141945 103.556366,70.263039 103.152954,71.702194 
z"/>
<path fill="#656565" opacity="1.000000" stroke="none" 
	d="
M102.317673,88.013077 
	C101.843498,87.765724 101.610855,87.534477 101.174194,87.161728 
	C102.165672,84.176376 100.892143,79.500671 106.662766,79.922958 
	C107.235825,80.174423 107.470642,80.393745 107.844780,80.814323 
	C107.003922,83.084114 106.007545,85.169983 104.998138,87.631996 
	C104.790710,88.018013 104.596313,88.027901 103.926712,88.045258 
	C103.451515,88.052727 103.080513,88.027496 103.080513,88.027496 
	C102.910995,88.023773 102.741486,88.020050 102.317673,88.013077 
z"/>
<path fill="#4F4B4B" opacity="1.000000" stroke="none" 
	d="
M103.166199,88.086792 
	C103.080513,88.027496 103.451515,88.052727 103.635147,88.060837 
	C103.818787,88.068954 103.544548,88.192184 103.544548,88.192184 
	C103.544548,88.192184 103.251884,88.146095 103.166199,88.086792 
z"/>
<path fill="#626262" opacity="1.000000" stroke="none" 
	d="
M63.911549,59.043110 
	C65.616913,60.309399 67.322281,61.575691 69.239746,63.190342 
	C68.167130,66.757011 70.794319,71.981201 64.452187,72.866508 
	C64.245117,71.903366 64.049713,70.994499 63.829544,69.335678 
	C63.867012,66.058372 63.929253,63.531010 63.999352,60.676193 
	C63.975323,59.913528 63.943436,59.478317 63.911549,59.043110 
z"/>
<path fill="#4A4646" opacity="1.000000" stroke="none" 
	d="
M74.996056,55.989803 
	C77.432442,57.191982 79.836159,58.495529 82.325836,59.606422 
	C85.062012,60.827312 85.234726,62.030659 82.304398,63.677765 
	C81.902588,63.930344 81.745056,63.987251 81.148743,63.808739 
	C77.796944,62.379547 74.883934,61.185776 71.810364,59.756050 
	C71.077431,59.025791 70.505066,58.531490 69.932693,58.037186 
	C70.270409,57.413696 70.608131,56.790207 71.648087,56.072029 
	C73.244644,55.983646 74.138947,55.989952 75.033257,55.996258 
	C75.033257,55.996258 75.001274,56.006252 74.996056,55.989803 
z"/>
<path fill="#292321" opacity="1.000000" stroke="none" 
	d="
M63.991493,61.003647 
	C63.929253,63.531010 63.867012,66.058372 63.867859,68.983200 
	C62.542614,70.527725 61.154285,71.674767 59.484917,73.007385 
	C58.771294,71.701828 58.338707,70.210701 57.847702,68.322250 
	C57.789276,67.924934 57.995583,67.501503 58.369930,67.129196 
	C59.614128,64.674255 60.483978,62.591637 61.353828,60.509018 
	C61.353832,60.509018 61.354561,60.364414 61.832104,60.495304 
	C62.870262,60.752014 63.430878,60.877831 63.991493,61.003647 
z"/>
<path fill="#433D3D" opacity="1.000000" stroke="none" 
	d="
M71.970932,59.992004 
	C74.883934,61.185776 77.796944,62.379547 80.907036,63.877296 
	C77.429474,68.401031 74.785797,64.921814 71.931320,62.234100 
	C71.938927,61.006760 71.954933,60.499382 71.970932,59.992004 
z"/>
<path fill="#626262" opacity="1.000000" stroke="none" 
	d="
M71.810371,59.756050 
	C71.954933,60.499382 71.938927,61.006760 71.843475,61.886620 
	C71.379257,62.190586 70.994476,62.122066 70.316643,62.062782 
	C69.906296,60.898331 69.789001,59.724648 69.802200,58.294075 
	C70.505066,58.531490 71.077431,59.025791 71.810371,59.756050 
z"/>
<path fill="#494443" opacity="1.000000" stroke="none" 
	d="
M85.092880,79.118256 
	C90.881287,77.077492 94.121429,78.196709 97.930313,83.672165 
	C93.840332,82.447609 89.606514,80.905434 85.092880,79.118256 
z"/>
<path fill="#626262" opacity="1.000000" stroke="none" 
	d="
M63.717957,55.781754 
	C63.741497,55.931419 63.513916,56.292038 63.079163,56.897774 
	C63.070271,56.759495 63.268551,56.376102 63.717957,55.781754 
z"/>
<path fill="#393434" opacity="1.000000" stroke="none" 
	d="
M63.999352,60.676193 
	C63.430878,60.877831 62.870262,60.752014 61.903152,60.481911 
	C61.605721,60.039677 61.761276,59.768383 62.088440,59.324104 
	C62.592037,59.119400 62.970520,59.114338 63.630280,59.076195 
	C63.943436,59.478317 63.975323,59.913528 63.999352,60.676193 
z"/>
<path fill="#393434" opacity="1.000000" stroke="none" 
	d="
M74.754929,55.793312 
	C74.138947,55.989952 73.244644,55.983646 71.900436,55.967834 
	C71.510521,55.709480 71.570503,55.460632 71.786728,54.860008 
	C72.787506,54.868942 73.632050,55.229656 74.754929,55.793312 
z"/>
<path fill="#4A4646" opacity="1.000000" stroke="none" 
	d="
M70.893013,53.075089 
	C71.018578,53.114174 71.051491,53.304459 71.160538,53.774853 
	C71.091248,53.778740 70.945801,53.502514 70.893013,53.075089 
z"/>
<path fill="#E8D6D2" opacity="1.000000" stroke="none" 
	d="
M57.993324,61.446945 
	C56.909843,62.230556 55.812584,62.653469 54.355618,63.023392 
	C53.990822,61.614433 53.985729,60.258465 53.979782,58.497318 
	C57.227787,56.530998 58.015053,58.258945 57.993324,61.446945 
z"/>
<path fill="#393434" opacity="1.000000" stroke="none" 
	d="
M61.074585,60.663551 
	C60.483978,62.591637 59.614128,64.674255 58.444984,66.905960 
	C58.090729,65.734543 58.035767,64.414040 57.981121,62.697514 
	C58.919407,61.807014 59.857372,61.312546 61.074585,60.663551 
z"/>
<path fill="#292321" opacity="1.000000" stroke="none" 
	d="
M56.248268,68.113617 
	C56.146873,68.067543 56.563419,68.045670 56.770939,68.027351 
	C56.787037,68.159592 56.577438,68.209808 56.248268,68.113617 
z"/>
</svg>